<svg width="56" height="56" viewBox="0 0 56 56" fill="none" xmlns="http://www.w3.org/2000/svg">
<g filter="url(#filter0_d_185_1892)">
<rect x="50" y="46" width="40" height="40" rx="20" transform="rotate(180 50 46)" fill="white" shape-rendering="crispEdges"/>
<rect x="49.5" y="45.5" width="39" height="39" rx="19.5" transform="rotate(180 49.5 45.5)" stroke="#EBECF0" shape-rendering="crispEdges"/>
<path d="M36.3749 29.8394V30.2274L36.7508 30.3238C37.0918 30.4111 37.4037 30.5872 37.6546 30.8341C37.9056 31.081 38.0868 31.3899 38.1797 31.7294C38.2727 32.069 38.2742 32.4271 38.184 32.7674C38.0938 33.1077 37.9152 33.4181 37.6663 33.667C37.4173 33.9159 37.1069 34.0946 36.7667 34.1847C36.4264 34.2749 36.0682 34.2735 35.7287 34.1805C35.3892 34.0875 35.0803 33.9063 34.8334 33.6554C34.5865 33.4044 34.4104 33.0926 34.323 32.7515L34.2267 32.3757H33.8387H26.1612H25.7731L25.6768 32.7515C25.5894 33.0926 25.4134 33.4044 25.1665 33.6554L25.5229 34.006L25.1665 33.6554C24.9196 33.9063 24.6107 34.0875 24.2711 34.1805C23.9316 34.2735 23.5735 34.2749 23.2332 34.1847L23.1051 34.6681L23.2332 34.1847C22.8929 34.0946 22.5825 33.9159 22.3336 33.667C22.0847 33.4181 21.906 33.1077 21.8158 32.7674C21.7257 32.4271 21.7271 32.069 21.8201 31.7294C21.9131 31.3899 22.0942 31.081 22.3452 30.8341C22.5962 30.5872 22.908 30.4111 23.249 30.3238L23.6249 30.2274V29.8394V22.1619V21.7739L23.249 21.6776C22.908 21.5902 22.5962 21.4141 22.3452 21.1672C22.0942 20.9203 21.9131 20.6114 21.8201 20.2719C21.7271 19.9323 21.7257 19.5742 21.8158 19.2339C21.906 18.8936 22.0847 18.5833 22.3336 18.3343C22.5825 18.0854 22.8929 17.9068 23.2332 17.8166C23.5735 17.7264 23.9316 17.7279 24.2711 17.8208C24.6107 17.9138 24.9196 18.095 25.1665 18.3459C25.4134 18.5969 25.5894 18.9087 25.6768 19.2498L25.7731 19.6257H26.1612H33.8387H34.2267L34.323 19.2498C34.4104 18.9087 34.5865 18.5969 34.8334 18.3459C35.0803 18.095 35.3892 17.9138 35.7287 17.8208C36.0682 17.7279 36.4264 17.7264 36.7667 17.8166C37.1069 17.9068 37.4173 18.0854 37.6663 18.3343C37.9152 18.5833 38.0938 18.8936 38.184 19.2339L38.6673 19.1058L38.184 19.2339C38.2742 19.5742 38.2727 19.9323 38.1797 20.2719C38.0868 20.6114 37.9056 20.9203 37.6546 21.1672L38.0053 21.5237L37.6546 21.1672C37.4037 21.4141 37.0918 21.5902 36.7508 21.6776L36.3749 21.7739V22.1619V29.8394ZM36.2499 18.0007L36.2494 18.0007C35.7856 18.0011 35.3408 18.1856 35.0129 18.5136L35.3664 18.8671L35.0129 18.5136C34.6849 18.8416 34.5004 19.2863 34.4999 19.7502V19.7507C34.4999 20.0968 34.6026 20.4351 34.7949 20.7229C34.9871 21.0107 35.2605 21.235 35.5802 21.3674C35.9 21.4999 36.2519 21.5346 36.5913 21.467C36.9308 21.3995 37.2426 21.2328 37.4874 20.9881C37.7321 20.7434 37.8988 20.4315 37.9663 20.0921C38.0338 19.7526 37.9992 19.4007 37.8667 19.081C37.7343 18.7612 37.51 18.4879 37.2222 18.2956L36.9444 18.7113L37.2222 18.2956C36.9344 18.1033 36.596 18.0007 36.2499 18.0007ZM21.9999 19.7507L21.9999 19.7512C22.0004 20.215 22.1849 20.6597 22.5129 20.9877C22.8408 21.3157 23.2856 21.5002 23.7494 21.5007H23.7499C24.096 21.5007 24.4344 21.398 24.7222 21.2057C25.01 21.0134 25.2343 20.7401 25.3667 20.4204C25.4992 20.1006 25.5338 19.7487 25.4663 19.4092C25.3988 19.0698 25.2321 18.758 24.9874 18.5132C24.7426 18.2685 24.4308 18.1018 24.0913 18.0343C23.7519 17.9668 23.4 18.0014 23.0802 18.1339C22.7605 18.2663 22.4871 18.4906 22.2949 18.7784C22.1026 19.0662 21.9999 19.4045 21.9999 19.7507ZM25.4999 32.2512V32.2507C25.4999 31.9045 25.3973 31.5662 25.205 31.2784C25.0127 30.9906 24.7394 30.7663 24.4196 30.6339C24.0998 30.5014 23.748 30.4668 23.4085 30.5343C23.069 30.6018 22.7572 30.7685 22.5125 31.0132C22.2677 31.258 22.1011 31.5698 22.0335 31.9092C21.966 32.2487 22.0007 32.6006 22.1331 32.9204C22.2656 33.2401 22.4899 33.5134 22.7777 33.7057C23.0655 33.898 23.4038 34.0007 23.7499 34.0007H23.7504C24.2143 34.0002 24.659 33.8157 24.987 33.4877C25.315 33.1597 25.4995 32.715 25.4999 32.2512ZM33.8387 32.1257H34.2252L34.3225 31.7516C34.412 31.408 34.5916 31.0945 34.8426 30.8434C35.0937 30.5923 35.4073 30.4127 35.7509 30.3233L36.1249 30.2259V29.8394V22.1619V21.7755L35.751 21.6781C35.4074 21.5885 35.0938 21.409 34.8427 21.1579C34.5916 20.9068 34.4121 20.5932 34.3225 20.2496L34.2251 19.8757H33.8387H26.1612H25.7748L25.6773 20.2495C25.5878 20.5932 25.4082 20.9067 25.1571 21.1578C24.906 21.4089 24.5924 21.5885 24.2488 21.6781L23.8749 21.7755V22.1619V29.8394V30.2258L24.2489 30.3233C24.5925 30.4128 24.906 30.5924 25.1571 30.8435C25.4082 31.0946 25.5878 31.4081 25.6773 31.7517L25.7748 32.1257H26.1612H33.8387ZM36.2499 34.0007H36.2507C36.7144 34 37.1589 33.8154 37.4868 33.4875C37.8147 33.1596 37.9992 32.7151 37.9999 32.2514V32.2507C37.9999 31.9045 37.8973 31.5662 37.705 31.2784C37.5127 30.9906 37.2394 30.7663 36.9196 30.6339C36.5998 30.5014 36.248 30.4668 35.9085 30.5343C35.569 30.6018 35.2572 30.7685 35.0125 31.0132C34.7677 31.258 34.6011 31.5698 34.5335 31.9092C34.466 32.2487 34.5007 32.6006 34.6331 32.9204C34.7656 33.2401 34.9899 33.5134 35.2777 33.7057C35.5655 33.898 35.9038 34.0007 36.2499 34.0007Z" fill="#42526E" stroke="#42526E"/>
</g>
<defs>
<filter id="filter0_d_185_1892" x="0" y="0" width="56" height="56" filterUnits="userSpaceOnUse" color-interpolation-filters="sRGB">
<feFlood flood-opacity="0" result="BackgroundImageFix"/>
<feColorMatrix in="SourceAlpha" type="matrix" values="0 0 0 0 0 0 0 0 0 0 0 0 0 0 0 0 0 0 127 0" result="hardAlpha"/>
<feOffset dx="-2" dy="2"/>
<feGaussianBlur stdDeviation="4"/>
<feComposite in2="hardAlpha" operator="out"/>
<feColorMatrix type="matrix" values="0 0 0 0 0 0 0 0 0 0 0 0 0 0 0 0 0 0 0.16 0"/>
<feBlend mode="normal" in2="BackgroundImageFix" result="effect1_dropShadow_185_1892"/>
<feBlend mode="normal" in="SourceGraphic" in2="effect1_dropShadow_185_1892" result="shape"/>
</filter>
</defs>
</svg>
