<svg width="56" height="56" viewBox="0 0 56 56" fill="none" xmlns="http://www.w3.org/2000/svg">
<g filter="url(#filter0_d_185_1895)">
<rect x="50" y="46" width="40" height="40" rx="20" transform="rotate(180 50 46)" fill="white" shape-rendering="crispEdges"/>
<rect x="49.5" y="45.5" width="39" height="39" rx="19.5" transform="rotate(180 49.5 45.5)" stroke="#EBECF0" shape-rendering="crispEdges"/>
<path d="M27.5001 24.3333H30.0001M30.0001 24.3333H32.5001M30.0001 24.3333V21.8333M30.0001 24.3333V26.8333M35.8334 24.3333C35.8334 27.6467 30.0001 33.5 30.0001 33.5C30.0001 33.5 24.1667 27.6467 24.1667 24.3333C24.1667 21.02 26.7784 18.5 30.0001 18.5C33.2217 18.5 35.8334 21.02 35.8334 24.3333Z" stroke="#42526E" stroke-width="1.5" stroke-linecap="round" stroke-linejoin="round"/>
</g>
<defs>
<filter id="filter0_d_185_1895" x="0" y="0" width="56" height="56" filterUnits="userSpaceOnUse" color-interpolation-filters="sRGB">
<feFlood flood-opacity="0" result="BackgroundImageFix"/>
<feColorMatrix in="SourceAlpha" type="matrix" values="0 0 0 0 0 0 0 0 0 0 0 0 0 0 0 0 0 0 127 0" result="hardAlpha"/>
<feOffset dx="-2" dy="2"/>
<feGaussianBlur stdDeviation="4"/>
<feComposite in2="hardAlpha" operator="out"/>
<feColorMatrix type="matrix" values="0 0 0 0 0 0 0 0 0 0 0 0 0 0 0 0 0 0 0.16 0"/>
<feBlend mode="normal" in2="BackgroundImageFix" result="effect1_dropShadow_185_1895"/>
<feBlend mode="normal" in="SourceGraphic" in2="effect1_dropShadow_185_1895" result="shape"/>
</filter>
</defs>
</svg>
