<svg width="56" height="56" viewBox="0 0 56 56" fill="none" xmlns="http://www.w3.org/2000/svg">
<g filter="url(#filter0_d_185_1928)">
<rect x="50" y="46" width="40" height="40" rx="20" transform="rotate(180 50 46)" fill="white"/>
<rect x="49.5" y="45.5" width="39" height="39" rx="19.5" transform="rotate(180 49.5 45.5)" stroke="#EBECF0"/>
<path fill-rule="evenodd" clip-rule="evenodd" d="M35 29.3333C35.663 29.3333 36.2989 29.5967 36.7678 30.0656C37.2366 30.5344 37.5 31.1703 37.5 31.8333C37.5 32.4964 37.2366 33.1323 36.7678 33.6011C36.2989 34.0699 35.663 34.3333 35 34.3333C34.337 34.3333 33.7011 34.0699 33.2322 33.6011C32.7634 33.1323 32.5 32.4964 32.5 31.8333C32.5 31.1703 32.7634 30.5344 33.2322 30.0656C33.7011 29.5967 34.337 29.3333 35 29.3333ZM32.9167 19.3333C33.9112 19.3333 34.8651 19.7284 35.5683 20.4317C36.2716 21.1349 36.6667 22.0888 36.6667 23.0833C36.6667 24.0779 36.2716 25.0317 35.5683 25.735C34.8651 26.4382 33.9112 26.8333 32.9167 26.8333L27.0833 26.8333C26.5308 26.8333 26.0009 27.0528 25.6102 27.4435C25.2195 27.8342 25 28.3641 25 28.9167C25 29.4692 25.2195 29.9991 25.6102 30.3898C26.0009 30.7805 26.5308 31 27.0833 31L30.8333 31C31.0543 31 31.2663 31.0878 31.4226 31.2441C31.5789 31.4003 31.6667 31.6123 31.6667 31.8333C31.6667 32.0543 31.5789 32.2663 31.4226 32.4226C31.2663 32.5789 31.0543 32.6667 30.8333 32.6667L27.0833 32.6667C26.0888 32.6667 25.1349 32.2716 24.4317 31.5683C23.7284 30.865 23.3333 29.9112 23.3333 28.9167C23.3333 27.9221 23.7284 26.9683 24.4317 26.265C25.1349 25.5617 26.0888 25.1667 27.0833 25.1667L32.9167 25.1667C33.4692 25.1667 33.9991 24.9472 34.3898 24.5565C34.7805 24.1658 35 23.6359 35 23.0833C35 22.5308 34.7805 22.0009 34.3898 21.6102C33.9991 21.2195 33.4692 21 32.9167 21L29.1667 21C28.9457 21 28.7337 20.9122 28.5774 20.7559C28.4211 20.5996 28.3333 20.3877 28.3333 20.1667C28.3333 19.9456 28.4211 19.7337 28.5774 19.5774C28.7337 19.4211 28.9457 19.3333 29.1667 19.3333L32.9167 19.3333ZM35 31C34.779 31 34.567 31.0878 34.4107 31.2441C34.2545 31.4003 34.1667 31.6123 34.1667 31.8333C34.1667 32.0543 34.2545 32.2663 34.4107 32.4226C34.567 32.5789 34.779 32.6667 35 32.6667C35.221 32.6667 35.433 32.5789 35.5893 32.4226C35.7455 32.2663 35.8333 32.0543 35.8333 31.8333C35.8333 31.6123 35.7455 31.4003 35.5893 31.2441C35.433 31.0878 35.221 31 35 31ZM25 17.6667C25.663 17.6667 26.2989 17.93 26.7678 18.3989C27.2366 18.8677 27.5 19.5036 27.5 20.1667C27.5 20.8297 27.2366 21.4656 26.7678 21.9344C26.2989 22.4033 25.663 22.6667 25 22.6667C24.337 22.6667 23.7011 22.4033 23.2322 21.9344C22.7634 21.4656 22.5 20.8297 22.5 20.1667C22.5 19.5036 22.7634 18.8677 23.2322 18.3989C23.7011 17.93 24.337 17.6667 25 17.6667ZM25 19.3333C24.779 19.3333 24.567 19.4211 24.4107 19.5774C24.2545 19.7337 24.1667 19.9456 24.1667 20.1667C24.1667 20.3877 24.2545 20.5996 24.4107 20.7559C24.567 20.9122 24.779 21 25 21C25.221 21 25.433 20.9122 25.5893 20.7559C25.7455 20.5996 25.8333 20.3877 25.8333 20.1667C25.8333 19.9456 25.7455 19.7337 25.5893 19.5774C25.433 19.4211 25.221 19.3333 25 19.3333Z" fill="#42526E"/>
</g>
<defs>
<filter id="filter0_d_185_1928" x="0" y="0" width="56" height="56" filterUnits="userSpaceOnUse" color-interpolation-filters="sRGB">
<feFlood flood-opacity="0" result="BackgroundImageFix"/>
<feColorMatrix in="SourceAlpha" type="matrix" values="0 0 0 0 0 0 0 0 0 0 0 0 0 0 0 0 0 0 127 0" result="hardAlpha"/>
<feOffset dx="-2" dy="2"/>
<feGaussianBlur stdDeviation="4"/>
<feComposite in2="hardAlpha" operator="out"/>
<feColorMatrix type="matrix" values="0 0 0 0 0 0 0 0 0 0 0 0 0 0 0 0 0 0 0.16 0"/>
<feBlend mode="normal" in2="BackgroundImageFix" result="effect1_dropShadow_185_1928"/>
<feBlend mode="normal" in="SourceGraphic" in2="effect1_dropShadow_185_1928" result="shape"/>
</filter>
</defs>
</svg>
