<svg width="56" height="56" viewBox="0 0 56 56" fill="none" xmlns="http://www.w3.org/2000/svg">
<g filter="url(#filter0_d_185_1933)">
<rect x="50" y="46" width="40" height="40" rx="20" transform="rotate(180 50 46)" fill="white"/>
<rect x="49.5" y="45.5" width="39" height="39" rx="19.5" transform="rotate(180 49.5 45.5)" stroke="#EBECF0"/>
<path d="M27.5 26L27.5 27.6667M25 26L25 28.5M30 26L30 28.5M35 26L35 28.5M32.5 26L32.5 27.6667M22.5 18.5L22.5 21.8333M22.5 20.1667L37.5 20.1667M37.5 18.5L37.5 21.8333M36.5625 26C37.08 26 37.5 26.4267 37.5 26.9525L37.5 31.7142C37.5 32.24 37.08 32.6667 36.5625 32.6667L23.3333 32.6667C23.1123 32.6667 22.9004 32.5789 22.7441 32.4226C22.5878 32.2663 22.5 32.0543 22.5 31.8333L22.5 26.9525C22.5 26.4267 22.92 26 23.4375 26L36.5625 26Z" stroke="#42526E" stroke-width="1.5" stroke-linecap="round" stroke-linejoin="round"/>
</g>
<defs>
<filter id="filter0_d_185_1933" x="0" y="0" width="56" height="56" filterUnits="userSpaceOnUse" color-interpolation-filters="sRGB">
<feFlood flood-opacity="0" result="BackgroundImageFix"/>
<feColorMatrix in="SourceAlpha" type="matrix" values="0 0 0 0 0 0 0 0 0 0 0 0 0 0 0 0 0 0 127 0" result="hardAlpha"/>
<feOffset dx="-2" dy="2"/>
<feGaussianBlur stdDeviation="4"/>
<feComposite in2="hardAlpha" operator="out"/>
<feColorMatrix type="matrix" values="0 0 0 0 0 0 0 0 0 0 0 0 0 0 0 0 0 0 0.16 0"/>
<feBlend mode="normal" in2="BackgroundImageFix" result="effect1_dropShadow_185_1933"/>
<feBlend mode="normal" in="SourceGraphic" in2="effect1_dropShadow_185_1933" result="shape"/>
</filter>
</defs>
</svg>
