<svg width="20" height="20" viewBox="0 0 20 20" fill="none" xmlns="http://www.w3.org/2000/svg">
<g clip-path="url(#clip0_50_943)">
<rect width="20" height="20" fill="white" fill-opacity="0.01"/>
<path d="M11.5682 -0.676946C11.4664 -0.812663 11.3245 -0.912881 11.1625 -0.963384C11.0005 -1.01389 10.8268 -1.01211 10.6659 -0.958299C10.505 -0.904492 10.3652 -0.801388 10.2662 -0.663615C10.1672 -0.525843 10.1141 -0.360398 10.1145 -0.190753V3.03977C10.1145 3.25396 10.1995 3.45939 10.351 3.61085C10.5025 3.76231 10.7079 3.8474 10.9221 3.8474C11.1363 3.8474 11.3417 3.76231 11.4932 3.61085C11.6446 3.45939 11.7297 3.25396 11.7297 3.03977V2.21922L12.715 3.52758C12.8221 3.66915 12.9729 3.77151 13.1439 3.81881C13.315 3.86611 13.497 3.85572 13.6616 3.78925L16.0651 2.82332L15.0022 6.01508C14.9618 6.13643 14.9508 6.26564 14.9701 6.39208C14.9894 6.51852 15.0384 6.63857 15.1132 6.74235C15.1879 6.84613 15.2863 6.93067 15.4001 6.98901C15.5139 7.04735 15.64 7.07782 15.7679 7.07792H18.3151L16.078 8.87086C15.9837 8.94653 15.9075 9.04243 15.8552 9.15146C15.8029 9.26049 15.7758 9.37988 15.7758 9.50081C15.7758 9.62174 15.8029 9.74113 15.8552 9.85016C15.9075 9.95919 15.9837 10.0551 16.078 10.1308L18.3151 11.9237H15.7679C15.5537 11.9237 15.3482 12.0088 15.1968 12.1602C15.0453 12.3117 14.9602 12.5171 14.9602 12.7313C14.9602 12.9455 15.0453 13.151 15.1968 13.3024C15.3482 13.4539 15.5537 13.539 15.7679 13.539H20.6136C20.7809 13.539 20.9441 13.4871 21.0806 13.3904C21.2171 13.2937 21.3202 13.1571 21.3757 12.9993C21.4312 12.8415 21.4363 12.6703 21.3904 12.5095C21.3444 12.3487 21.2497 12.2061 21.1192 12.1014L17.8742 9.50081L21.1192 6.90024C21.2497 6.79556 21.3444 6.65296 21.3904 6.49212C21.4363 6.33128 21.4312 6.16014 21.3757 6.00234C21.3202 5.84455 21.2171 5.70787 21.0806 5.6112C20.9441 5.51452 20.7809 5.46262 20.6136 5.46266H16.8889L18.1488 1.67972C18.1973 1.53364 18.2031 1.37673 18.1654 1.22748C18.1278 1.07822 18.0483 0.942832 17.9363 0.837258C17.8242 0.731684 17.6844 0.660323 17.5331 0.631581C17.3819 0.602839 17.2256 0.617913 17.0827 0.675027L13.6325 2.06092L11.5682 -0.676946ZM9.30682 15.1542C9.52102 15.1542 9.72644 15.0691 9.8779 14.9177C10.0294 14.7662 10.1145 14.5608 10.1145 14.3466C10.1145 14.1324 10.0294 13.927 9.8779 13.7755C9.72644 13.624 9.52102 13.539 9.30682 13.539C9.09262 13.539 8.8872 13.624 8.73574 13.7755C8.58428 13.927 8.49919 14.1324 8.49919 14.3466C8.49919 14.5608 8.58428 14.7662 8.73574 14.9177C8.8872 15.0691 9.09262 15.1542 9.30682 15.1542ZM3.65341 14.3466C3.65341 14.5608 3.56832 14.7662 3.41686 14.9177C3.2654 15.0691 3.05998 15.1542 2.84578 15.1542C2.63158 15.1542 2.42616 15.0691 2.2747 14.9177C2.12324 14.7662 2.03815 14.5608 2.03815 14.3466C2.03815 14.1324 2.12324 13.927 2.2747 13.7755C2.42616 13.624 2.63158 13.539 2.84578 13.539C3.05998 13.539 3.2654 13.624 3.41686 13.7755C3.56832 13.927 3.65341 14.1324 3.65341 14.3466ZM12.3144 10.3084L12.4598 11.3164C13.009 11.8946 13.345 12.678 13.345 13.539V18.3847C13.345 18.8131 13.1748 19.224 12.8719 19.5269C12.569 19.8298 12.1581 20 11.7297 20C11.3013 20 10.8905 19.8298 10.5876 19.5269C10.2846 19.224 10.1145 18.8131 10.1145 18.3847H2.03815C2.03815 18.8131 1.86797 19.224 1.56505 19.5269C1.26213 19.8298 0.851284 20 0.42289 20C-0.00550342 20 -0.416351 19.8298 -0.719271 19.5269C-1.02219 19.224 -1.19237 18.8131 -1.19237 18.3847V13.539C-1.19237 12.678 -0.854781 11.8946 -0.305592 11.3164L-0.161834 10.3084H-1.19237C-1.40657 10.3084 -1.61199 10.2233 -1.76345 10.0719C-1.91491 9.92043 -2 9.71501 -2 9.50081C-2 9.28661 -1.91491 9.08119 -1.76345 8.92973C-1.61199 8.77827 -1.40657 8.69318 -1.19237 8.69318H0.067533L0.23229 7.54311C0.314726 6.96569 0.6027 6.43738 1.04333 6.05521C1.48396 5.67303 2.04767 5.46264 2.63095 5.46266H9.52165C10.1049 5.46264 10.6686 5.67303 11.1093 6.05521C11.5499 6.43738 11.8379 6.96569 11.9203 7.54311L12.0835 8.69318H13.345C13.5592 8.69318 13.7646 8.77827 13.9161 8.92973C14.0675 9.08119 14.1526 9.28661 14.1526 9.50081C14.1526 9.71501 14.0675 9.92043 13.9161 10.0719C13.7646 10.2233 13.5592 10.3084 13.345 10.3084H12.3144ZM1.8314 7.77248L1.4615 10.3601C1.64887 10.3257 1.84109 10.3084 2.03815 10.3084H10.1145C10.3104 10.3084 10.5027 10.3257 10.6911 10.3601L10.3196 7.77087C10.2921 7.57904 10.1965 7.4035 10.0503 7.27629C9.90411 7.14907 9.71706 7.07867 9.52327 7.07792H2.63095C2.43636 7.07795 2.24833 7.14823 2.10143 7.27584C1.95453 7.40345 1.85864 7.57981 1.8314 7.77248ZM11.7297 13.539C11.7297 13.1106 11.5595 12.6997 11.2566 12.3968C10.9537 12.0939 10.5428 11.9237 10.1145 11.9237H2.03815C1.60976 11.9237 1.19891 12.0939 0.895989 12.3968C0.593069 12.6997 0.42289 13.1106 0.42289 13.539V16.7695H11.7297V13.539Z" fill="#FAFBFC"/>
</g>
<defs>
<clipPath id="clip0_50_943">
<rect width="20" height="20" fill="white"/>
</clipPath>
</defs>
</svg>
