<svg width="24" height="24" viewBox="0 0 24 24" fill="none" xmlns="http://www.w3.org/2000/svg">
<rect width="24" height="24" fill="white" fill-opacity="0.01"/>
<path d="M16.5 17.5365C16.9688 17.5365 17.3674 17.3739 17.6959 17.0488C18.0244 16.7237 18.1883 16.3283 18.1875 15.8626C18.1868 15.3969 18.0229 15.0019 17.6959 14.6776C17.3689 14.3532 16.9703 14.1903 16.5 14.1888C16.0298 14.1873 15.6315 14.3502 15.3053 14.6776C14.979 15.0049 14.8148 15.3999 14.8125 15.8626C14.8103 16.3254 14.9745 16.7208 15.3053 17.0488C15.636 17.3769 16.0343 17.5394 16.5 17.5365ZM16.5 20.8841C17.0955 20.8841 17.6336 20.7528 18.1144 20.4902C18.5944 20.2276 18.9919 19.8731 19.3069 19.4268C18.8794 19.1709 18.4312 18.9778 17.9625 18.8476C17.4937 18.7174 17.0063 18.6523 16.5 18.6523C15.9938 18.6523 15.5063 18.7174 15.0375 18.8476C14.5688 18.9778 14.121 19.1712 13.6943 19.4279C14.0085 19.8742 14.406 20.2283 14.8868 20.4902C15.366 20.7528 15.9038 20.8841 16.5 20.8841ZM10.875 21.9576C8.6145 21.2918 6.73688 19.9338 5.24213 17.8835C3.74738 15.8333 3 13.523 3 10.9527V4.91804L10.875 2L18.75 4.91804V11.2295C18.5813 11.167 18.396 11.1108 18.1943 11.061L17.1055 10.971V5.73303L10.875 3.63144L4.5 5.73303V11C4.5 12.1032 4.66425 13.1596 4.99275 14.1691C5.3205 15.1794 5.7675 16.1085 6.33375 16.9566C6.9 17.8047 7.56938 18.5449 8.34188 19.1772C9.11438 19.8095 9.74886 20.2132 10.6256 20.5473L10.9216 20.7011C11.0124 20.9243 10.9541 21.3044 11.0899 21.5156C11.2249 21.7254 11.1334 21.6158 11.3059 21.8003C11.2294 21.8293 11.1574 21.8553 11.0899 21.8784L10.875 21.9576ZM16.5 22C15.2468 22 14.1836 21.567 13.3106 20.7011C12.4369 19.8337 12 18.7788 12 17.5365C12 16.2941 12.4369 15.2396 13.3106 14.3729C14.1844 13.5063 15.2475 13.0729 16.5 13.0729C17.7525 13.0729 18.816 13.5063 19.6905 14.3729C20.565 15.2396 21.0015 16.2941 21 17.5365C20.9985 18.7788 20.562 19.8337 19.6905 20.7011C18.819 21.5685 17.7555 22.0015 16.5 22Z" fill="#FAFBFC"/>
</svg>
