<svg width="40" height="40" viewBox="0 0 40 40" fill="none" xmlns="http://www.w3.org/2000/svg">
<rect width="40" height="40" rx="16" fill="#0F6936"/>
<rect x="0.5" y="0.5" width="39" height="39" rx="15.5" stroke="#195026" stroke-opacity="0.4"/>
<path d="M20.0001 10.8334C18.1916 10.8334 16.4572 11.5577 15.1784 12.847C13.8997 14.1363 13.1813 15.885 13.1813 17.7084V21.3766L11.7205 25.0646C11.6748 25.1804 11.6578 25.3058 11.6712 25.4297C11.6845 25.5537 11.7278 25.6724 11.7971 25.7757C11.8665 25.8789 11.9598 25.9634 12.069 26.0219C12.1782 26.0804 12.3 26.111 12.4236 26.1112H16.9695C16.9695 27.8039 18.3211 29.1667 20.0001 29.1667C21.679 29.1667 23.0307 27.8039 23.0307 26.1112H27.5766C27.7002 26.111 27.8219 26.0804 27.9312 26.0219C28.0404 25.9634 28.1337 25.8789 28.2031 25.7757C28.2724 25.6724 28.3156 25.5537 28.329 25.4297C28.3423 25.3058 28.3254 25.1804 28.2796 25.0646L26.8189 21.375V17.7084C26.8189 15.885 26.1005 14.1363 24.8217 12.847C23.5429 11.5577 21.8085 10.8334 20.0001 10.8334ZM21.5154 26.1112C21.5154 26.9606 20.8426 27.6389 20.0001 27.6389C19.1576 27.6389 18.4848 26.9606 18.4848 26.1112H21.5154ZM14.6966 17.7084C14.6966 16.2902 15.2553 14.9301 16.2499 13.9273C17.2445 12.9245 18.5935 12.3612 20.0001 12.3612C21.4067 12.3612 22.7556 12.9245 23.7502 13.9273C24.7448 14.9301 25.3036 16.2902 25.3036 17.7084V21.5248C25.3039 21.6216 25.3224 21.7175 25.3582 21.8074L26.4583 24.5834H13.5419L14.642 21.8074C14.6778 21.7175 14.6963 21.6216 14.6966 21.5248V17.7084Z" fill="#DFE1E6"/>
</svg>
