<svg width="32" height="32" viewBox="0 0 32 32" fill="none" xmlns="http://www.w3.org/2000/svg">
<path d="M15.5203 22.0408C15.2754 22.0408 15.0304 21.9473 14.8438 21.7604L10.0582 16.9749C9.68436 16.601 9.68436 15.9953 10.0582 15.6215L14.8438 10.8359C15.2176 10.4621 15.8233 10.4621 16.1972 10.8359C16.571 11.2098 16.571 11.8155 16.1972 12.1893L12.0882 16.2982L16.1978 20.4077C16.5716 20.7816 16.5716 21.3873 16.1978 21.7611C16.0108 21.9481 15.7656 22.0408 15.5203 22.0408Z" fill="white"/>
<path opacity="0.8" d="M21.263 22.0408C21.0181 22.0408 20.7731 21.9473 20.5864 21.7604L15.8009 16.9749C15.427 16.601 15.427 15.9953 15.8009 15.6215L20.5864 10.8359C20.9603 10.4621 21.566 10.4621 21.9398 10.8359C22.3137 11.2098 22.3137 11.8155 21.9398 12.1893L17.8324 16.2982L21.9419 20.4077C22.3158 20.7816 22.3158 21.3873 21.9419 21.7611C21.7535 21.9481 21.5082 22.0408 21.263 22.0408Z" fill="white"/>
</svg>
