<svg width="20" height="20" viewBox="0 0 20 20" fill="none" xmlns="http://www.w3.org/2000/svg">
<rect width="20" height="20" fill="white" fill-opacity="0.01"/>
<path fill-rule="evenodd" clip-rule="evenodd" d="M3.49231 1H3.42308C3.106 1 2.83323 1 2.59231 1.05677C2.21934 1.14589 1.87833 1.33653 1.60706 1.60755C1.33578 1.87858 1.14484 2.21942 1.05538 2.59231C1 2.83323 1 3.10462 1 3.42308V6.88462C1 7.20169 1 7.47446 1.05677 7.71539C1.14589 8.08835 1.33653 8.42936 1.60755 8.70063C1.87858 8.97191 2.21942 9.16285 2.59231 9.25231C2.83323 9.30769 3.10462 9.30769 3.42308 9.30769H6.88462C7.20169 9.30769 7.47446 9.30769 7.71538 9.25092C8.08835 9.1618 8.42936 8.97117 8.70063 8.70014C8.97191 8.42911 9.16285 8.08827 9.25231 7.71539C9.30769 7.47446 9.30769 7.20308 9.30769 6.88462V3.42308C9.30769 3.106 9.30769 2.83323 9.25092 2.59231C9.1618 2.21934 8.97117 1.87833 8.70014 1.60706C8.42911 1.33578 8.08827 1.14484 7.71538 1.05538C7.47446 1 7.20308 1 6.88462 1H6.81538H3.49231ZM2.91492 2.404C2.97446 2.39015 3.06723 2.38462 3.49231 2.38462H6.81538C7.24185 2.38462 7.33323 2.38877 7.39277 2.404C7.51715 2.43374 7.63086 2.49736 7.72129 2.58779C7.81172 2.67822 7.87533 2.79193 7.90508 2.91631C7.91892 2.97446 7.92308 3.06585 7.92308 3.49231V6.81538C7.92308 7.24185 7.91892 7.33323 7.90369 7.39277C7.87395 7.51715 7.81033 7.63086 7.7199 7.72129C7.62948 7.81172 7.51576 7.87533 7.39139 7.90508C7.33462 7.91754 7.24323 7.92308 6.81538 7.92308H3.49231C3.06585 7.92308 2.97446 7.91892 2.91492 7.90369C2.79054 7.87395 2.67683 7.81033 2.5864 7.71991C2.49597 7.62948 2.43236 7.51577 2.40262 7.39139C2.39015 7.33462 2.38462 7.24323 2.38462 6.81538V3.49231C2.38462 3.06585 2.38877 2.97446 2.404 2.91492C2.43374 2.79054 2.49736 2.67683 2.58779 2.5864C2.67822 2.49597 2.79193 2.43236 2.91631 2.40262M13.1846 1H13.1154C12.7983 1 12.5255 1 12.2846 1.05677C11.9116 1.14589 11.5706 1.33653 11.2994 1.60755C11.0281 1.87858 10.8371 2.21942 10.7477 2.59231C10.6923 2.83323 10.6923 3.10462 10.6923 3.42308V6.88462C10.6923 7.20169 10.6923 7.47446 10.7491 7.71539C10.8382 8.08835 11.0288 8.42936 11.2999 8.70063C11.5709 8.97191 11.9117 9.16285 12.2846 9.25231C12.5255 9.30769 12.7969 9.30769 13.1154 9.30769H16.5769C16.894 9.30769 17.1668 9.30769 17.4077 9.25092C17.7807 9.1618 18.1217 8.97117 18.3929 8.70014C18.6642 8.42911 18.8552 8.08827 18.9446 7.71539C19 7.47446 19 7.20308 19 6.88462V3.42308C19 3.106 19 2.83323 18.9432 2.59231C18.8541 2.21934 18.6635 1.87833 18.3924 1.60706C18.1214 1.33578 17.7806 1.14484 17.4077 1.05538C17.1668 1 16.8954 1 16.5769 1H16.5077H13.1846ZM12.6072 2.404C12.6668 2.39015 12.7595 2.38462 13.1846 2.38462H16.5077C16.9342 2.38462 17.0255 2.38877 17.0851 2.404C17.2095 2.43374 17.3232 2.49736 17.4136 2.58779C17.504 2.67822 17.5676 2.79193 17.5974 2.91631C17.6112 2.97446 17.6154 3.06585 17.6154 3.49231V6.81538C17.6154 7.24185 17.6098 7.33323 17.596 7.39277C17.5663 7.51715 17.5026 7.63086 17.4122 7.72129C17.3218 7.81172 17.2081 7.87533 17.0837 7.90508C17.0255 7.91892 16.9342 7.92308 16.5077 7.92308H13.1846C12.7582 7.92308 12.6668 7.91892 12.6072 7.90369C12.4829 7.87395 12.3691 7.81033 12.2787 7.71991C12.1883 7.62948 12.1247 7.51577 12.0949 7.39139C12.0825 7.33462 12.0769 7.24323 12.0769 6.81538V3.49231C12.0769 3.06585 12.0811 2.97446 12.0963 2.91492C12.1261 2.79054 12.1897 2.67683 12.2801 2.5864C12.3705 2.49597 12.4842 2.43236 12.6086 2.40262M3.42308 10.6923H6.88462C7.20169 10.6923 7.47446 10.6923 7.71538 10.7491C8.08835 10.8382 8.42936 11.0288 8.70063 11.2999C8.97191 11.5709 9.16285 11.9117 9.25231 12.2846C9.30769 12.5255 9.30769 12.7969 9.30769 13.1154V16.5769C9.30769 16.894 9.30769 17.1668 9.25092 17.4077C9.1618 17.7807 8.97117 18.1217 8.70014 18.3929C8.42911 18.6642 8.08827 18.8552 7.71538 18.9446C7.47446 19 7.20308 19 6.88462 19H3.42308C3.106 19 2.83323 19 2.59231 18.9432C2.21934 18.8541 1.87833 18.6635 1.60706 18.3924C1.33578 18.1214 1.14484 17.7806 1.05538 17.4077C1 17.1668 1 16.8954 1 16.5769V13.1154C1 12.7983 1 12.5255 1.05677 12.2846C1.14589 11.9117 1.33653 11.5706 1.60755 11.2994C1.87858 11.0281 2.21942 10.8371 2.59231 10.7477C2.83323 10.6923 3.10462 10.6923 3.42308 10.6923ZM3.49231 12.0769C3.06585 12.0769 2.97446 12.0811 2.91492 12.0963C2.79054 12.1261 2.67683 12.1897 2.5864 12.2801C2.49597 12.3705 2.43236 12.4842 2.40262 12.6086C2.39015 12.6654 2.38462 12.7568 2.38462 13.1846V16.5077C2.38462 16.9342 2.38877 17.0255 2.404 17.0851C2.43374 17.2095 2.49736 17.3232 2.58779 17.4136C2.67822 17.504 2.79193 17.5676 2.91631 17.5974C2.97446 17.6112 3.06585 17.6154 3.49231 17.6154H6.81538C7.24185 17.6154 7.33323 17.6098 7.39277 17.596C7.51715 17.5663 7.63086 17.5026 7.72129 17.4122C7.81172 17.3218 7.87533 17.2081 7.90508 17.0837C7.91892 17.0255 7.92308 16.9342 7.92308 16.5077V13.1846C7.92308 12.7582 7.91892 12.6668 7.90369 12.6072C7.87395 12.4829 7.81033 12.3691 7.7199 12.2787C7.62948 12.1883 7.51576 12.1247 7.39139 12.0949C7.33462 12.0825 7.24323 12.0769 6.81538 12.0769H3.49231ZM13.1846 10.6923H13.1154C12.7983 10.6923 12.5255 10.6923 12.2846 10.7491C11.9116 10.8382 11.5706 11.0288 11.2994 11.2999C11.0281 11.5709 10.8371 11.9117 10.7477 12.2846C10.6923 12.5255 10.6923 12.7969 10.6923 13.1154V16.5769C10.6923 16.894 10.6923 17.1668 10.7491 17.4077C10.8382 17.7807 11.0288 18.1217 11.2999 18.3929C11.5709 18.6642 11.9117 18.8552 12.2846 18.9446C12.5255 19.0014 12.7983 19.0014 13.1154 19.0014H16.5769C16.894 19.0014 17.1668 19.0014 17.4077 18.9446C17.7804 18.8553 18.1211 18.6645 18.3921 18.3935C18.6631 18.1225 18.8539 17.7818 18.9432 17.4091C19 17.1682 19 16.8954 19 16.5783V13.1154C19 12.7983 19 12.5255 18.9432 12.2846C18.8541 11.9117 18.6635 11.5706 18.3924 11.2994C18.1214 11.0281 17.7806 10.8371 17.4077 10.7477C17.1668 10.6923 16.8954 10.6923 16.5769 10.6923H16.5077H13.1846ZM12.6072 12.0963C12.6668 12.0825 12.7595 12.0769 13.1846 12.0769H16.5077C16.9342 12.0769 17.0255 12.0811 17.0851 12.0963C17.2095 12.1261 17.3232 12.1897 17.4136 12.2801C17.504 12.3705 17.5676 12.4842 17.5974 12.6086C17.6112 12.6668 17.6154 12.7582 17.6154 13.1846V16.5077C17.6154 16.9342 17.6098 17.0255 17.596 17.0851C17.5663 17.2095 17.5026 17.3232 17.4122 17.4136C17.3218 17.504 17.2081 17.5676 17.0837 17.5974C17.0255 17.6112 16.9342 17.6154 16.5077 17.6154H13.1846C12.7582 17.6154 12.6668 17.6098 12.6072 17.596C12.4829 17.5663 12.3691 17.5026 12.2787 17.4122C12.1883 17.3218 12.1247 17.2081 12.0949 17.0837C12.0825 17.0269 12.0769 16.9355 12.0769 16.5077V13.1846C12.0769 12.7582 12.0811 12.6668 12.0963 12.6072C12.1261 12.4829 12.1897 12.3691 12.2801 12.2787C12.3705 12.1883 12.4842 12.1247 12.6086 12.0949" fill="#FAFBFC"/>
</svg>
