<svg width="32" height="32" viewBox="0 0 32 32" fill="none" xmlns="http://www.w3.org/2000/svg">
<circle cx="16" cy="16" r="16" fill="#EF4444"/>
<path d="M13 25C11.9 25 10.9583 24.6083 10.175 23.825C9.39167 23.0417 9 22.1 9 21V12.825C8.41667 12.6083 7.93767 12.246 7.563 11.738C7.18833 11.23 7.00067 10.6507 7 10C7 9.16667 7.29167 8.45833 7.875 7.875C8.45833 7.29167 9.16667 7 10 7C10.8333 7 11.5417 7.29167 12.125 7.875C12.7083 8.45833 13 9.16667 13 10C13 10.65 12.8127 11.2293 12.438 11.738C12.0633 12.2467 11.584 12.609 11 12.825V21C11 21.55 11.196 22.021 11.588 22.413C11.98 22.805 12.4507 23.0007 13 23C13.55 23 14.021 22.8043 14.413 22.413C14.805 22.0217 15.0007 21.5507 15 21V11C15 9.9 15.3917 8.95833 16.175 8.175C16.9583 7.39167 17.9 7 19 7C20.1 7 21.0417 7.39167 21.825 8.175C22.6083 8.95833 23 9.9 23 11V19.175C23.5833 19.3917 24.0627 19.7543 24.438 20.263C24.8133 20.7717 25.0007 21.3507 25 22C25 22.8333 24.7083 23.5417 24.125 24.125C23.5417 24.7083 22.8333 25 22 25C21.1667 25 20.4583 24.7083 19.875 24.125C19.2917 23.5417 19 22.8333 19 22C19 21.35 19.1877 20.7667 19.563 20.25C19.9383 19.7333 20.4173 19.375 21 19.175V11C21 10.45 20.8043 9.97933 20.413 9.588C20.0217 9.19667 19.5507 9.00067 19 9C18.45 9 17.9793 9.196 17.588 9.588C17.1967 9.98 17.0007 10.4507 17 11V21C17 22.1 16.6083 23.0417 15.825 23.825C15.0417 24.6083 14.1 25 13 25ZM10 11C10.2833 11 10.521 10.904 10.713 10.712C10.905 10.52 11.0007 10.2827 11 10C11 9.71667 10.904 9.47933 10.712 9.288C10.52 9.09667 10.2827 9.00067 10 9C9.71667 9 9.47933 9.096 9.288 9.288C9.09667 9.48 9.00067 9.71733 9 10C9 10.2833 9.096 10.521 9.288 10.713C9.48 10.905 9.71733 11.0007 10 11ZM22 23C22.2833 23 22.521 22.904 22.713 22.712C22.905 22.52 23.0007 22.2827 23 22C23 21.7167 22.904 21.4793 22.712 21.288C22.52 21.0967 22.2827 21.0007 22 21C21.7167 21 21.4793 21.096 21.288 21.288C21.0967 21.48 21.0007 21.7173 21 22C21 22.2833 21.096 22.521 21.288 22.713C21.48 22.905 21.7173 23.0007 22 23Z" fill="white"/>
</svg>
