<svg width="24" height="24" viewBox="0 0 24 24" fill="none" xmlns="http://www.w3.org/2000/svg">
<rect width="24" height="24" transform="translate(0 24) rotate(-90)" fill="white" fill-opacity="0.01"/>
<path fill-rule="evenodd" clip-rule="evenodd" d="M9.69793 13.706C9.60601 13.7992 9.49649 13.8732 9.37572 13.9238C9.25495 13.9743 9.12534 14.0003 8.99443 14.0003C8.86352 14.0003 8.73391 13.9743 8.61314 13.9238C8.49237 13.8732 8.38285 13.7992 8.29093 13.706C8.10436 13.517 7.99976 13.2621 7.99976 12.9965C7.99976 12.7309 8.10436 12.476 8.29093 12.287L11.2309 9.32201C11.3323 9.21982 11.4528 9.1387 11.5857 9.08335C11.7185 9.02799 11.861 8.99949 12.0049 8.99949C12.1488 8.99949 12.2913 9.02799 12.4242 9.08335C12.557 9.1387 12.6776 9.21982 12.7789 9.32201L15.7089 12.277C15.8958 12.4661 16.0006 12.7212 16.0006 12.987C16.0006 13.2528 15.8958 13.508 15.7089 13.697C15.617 13.7902 15.5075 13.8642 15.3867 13.9148C15.2659 13.9653 15.1363 13.9913 15.0054 13.9913C14.8745 13.9913 14.7449 13.9653 14.6241 13.9148C14.5034 13.8642 14.3938 13.7902 14.3019 13.697L12.0049 11.379L9.69793 13.706Z" fill="#FAFBFC"/>
</svg>
