<svg width="24" height="24" viewBox="0 0 24 24" fill="none" xmlns="http://www.w3.org/2000/svg">
<rect width="24" height="24" fill="white" fill-opacity="0.01"/>
<path d="M2.5 12C2.5 7.522 2.5 5.282 3.891 3.891C5.282 2.5 7.521 2.5 12 2.5C16.478 2.5 18.718 2.5 20.109 3.891C21.5 5.282 21.5 7.521 21.5 12M2.5 12C2.5 16.479 2.5 18.718 3.891 20.109C5.282 21.5 7.522 21.5 12 21.5C16.479 21.5 18.718 21.5 20.109 20.109C21.5 18.718 21.5 16.478 21.5 12M2.5 12H21.5M13 7H17" stroke="#FAFBFC" stroke-width="1.5" stroke-linecap="round" stroke-linejoin="round"/>
<path d="M8.25 8.25C8.94036 8.25 9.5 7.69036 9.5 7C9.5 6.30964 8.94036 5.75 8.25 5.75C7.55964 5.75 7 6.30964 7 7C7 7.69036 7.55964 8.25 8.25 8.25Z" stroke="#FAFBFC" stroke-width="1.5" stroke-linecap="round" stroke-linejoin="round"/>
<path d="M8.25 18.25C8.94036 18.25 9.5 17.6904 9.5 17C9.5 16.3096 8.94036 15.75 8.25 15.75C7.55964 15.75 7 16.3096 7 17C7 17.6904 7.55964 18.25 8.25 18.25Z" stroke="#FAFBFC" stroke-width="1.5" stroke-linecap="round" stroke-linejoin="round"/>
<path d="M13 17H17" stroke="#FAFBFC" stroke-width="1.5" stroke-linecap="round" stroke-linejoin="round"/>
</svg>
