<svg width="24" height="24" viewBox="0 0 24 24" fill="none" xmlns="http://www.w3.org/2000/svg">
<rect width="24" height="24" fill="white" fill-opacity="0.01"/>
<path d="M3 5.625C3 4.176 4.176 3 5.625 3H13.875C15.3255 3 16.5 4.176 16.5 5.625V6H17.073C17.4911 6.00001 17.9009 6.11651 18.2564 6.33642C18.612 6.55633 18.8993 6.87095 19.086 7.245L20.763 10.5975C20.9191 10.9101 21.0002 11.2547 21 11.604V16.5C21 17.0967 20.7629 17.669 20.341 18.091C19.919 18.5129 19.3467 18.75 18.75 18.75H17.9055C17.7398 19.3946 17.3643 19.9659 16.8383 20.3737C16.3123 20.7816 15.6656 21.003 15 21.003C14.3344 21.003 13.6877 20.7816 13.1617 20.3737C12.6357 19.9659 12.2602 19.3946 12.0945 18.75H10.4055C10.2344 19.4141 9.84102 19.9996 9.29077 20.4088C8.74051 20.8181 8.06664 21.0265 7.3814 20.9993C6.69616 20.9722 6.04092 20.711 5.52482 20.2594C5.00871 19.8078 4.66291 19.1931 4.545 18.5175C4.08456 18.3097 3.69388 17.9734 3.41983 17.549C3.14578 17.1246 3.00001 16.6302 3 16.125V5.625ZM12.0945 17.25C12.2608 16.6059 12.6365 16.0354 13.1624 15.6281C13.6884 15.2208 14.3348 14.9998 15 15V5.625C15 5.32663 14.8815 5.04048 14.6705 4.8295C14.4595 4.61853 14.1734 4.5 13.875 4.5H5.625C5.32663 4.5 5.04048 4.61853 4.8295 4.8295C4.61853 5.04048 4.5 5.32663 4.5 5.625V16.125C4.5 16.3875 4.59 16.629 4.74 16.821C4.9857 16.2443 5.40589 15.759 5.94154 15.4334C6.47719 15.1078 7.10139 14.9581 7.72647 15.0054C8.35155 15.0528 8.9461 15.2947 9.4266 15.6973C9.90711 16.0999 10.2494 16.6429 10.4055 17.25H12.0945ZM16.5 15.402C16.8453 15.6012 17.1474 15.8672 17.3888 16.1845C17.6301 16.5018 17.8058 16.864 17.9055 17.25H18.75C18.9489 17.25 19.1397 17.171 19.2803 17.0303C19.421 16.8897 19.5 16.6989 19.5 16.5V12H16.5V15.402ZM16.5 10.5H19.0365L17.7435 7.914C17.6812 7.78958 17.5854 7.68496 17.467 7.61185C17.3486 7.53873 17.2122 7.5 17.073 7.5H16.5V10.5ZM7.5 16.5C7.10218 16.5 6.72064 16.658 6.43934 16.9393C6.15804 17.2206 6 17.6022 6 18C6 18.3978 6.15804 18.7794 6.43934 19.0607C6.72064 19.342 7.10218 19.5 7.5 19.5C7.89782 19.5 8.27936 19.342 8.56066 19.0607C8.84196 18.7794 9 18.3978 9 18C9 17.6022 8.84196 17.2206 8.56066 16.9393C8.27936 16.658 7.89782 16.5 7.5 16.5ZM13.5 18C13.5 18.3978 13.658 18.7794 13.9393 19.0607C14.2206 19.342 14.6022 19.5 15 19.5C15.3978 19.5 15.7794 19.342 16.0607 19.0607C16.342 18.7794 16.5 18.3978 16.5 18C16.5 17.6022 16.342 17.2206 16.0607 16.9393C15.7794 16.658 15.3978 16.5 15 16.5C14.6022 16.5 14.2206 16.658 13.9393 16.9393C13.658 17.2206 13.5 17.6022 13.5 18Z" fill="#FAFBFC"/>
</svg>
