<svg width="20" height="20" viewBox="0 0 20 20" fill="none" xmlns="http://www.w3.org/2000/svg">
<g clip-path="url(#clip0_50_935)">
<rect width="20" height="20" fill="white" fill-opacity="0.01"/>
<path d="M11.9789 6.87501V10.8371L15.271 12.8123C15.4369 12.9118 15.5563 13.0732 15.6032 13.2609C15.65 13.4486 15.6204 13.6472 15.5208 13.813C15.4212 13.9789 15.2598 14.0983 15.0721 14.1452C14.8844 14.192 14.6858 14.1624 14.52 14.0628L10.8742 11.8753C10.7663 11.8104 10.677 11.7188 10.615 11.6092C10.553 11.4996 10.5205 11.3759 10.5205 11.25V6.87501C10.5205 6.68163 10.5974 6.49616 10.7341 6.35942C10.8708 6.22267 11.0563 6.14585 11.2497 6.14585C11.4431 6.14585 11.6285 6.22267 11.7653 6.35942C11.902 6.49616 11.9789 6.68163 11.9789 6.87501ZM20.2786 4.74311C20.1454 4.68784 19.9988 4.67333 19.8573 4.70139C19.7158 4.72946 19.5858 4.79885 19.4838 4.9008L18.3591 6.02827C18.0647 5.70835 17.7611 5.39025 17.4385 5.06304C16.2225 3.84688 14.675 3.01605 12.9895 2.67434C11.304 2.33263 9.55516 2.4952 7.96151 3.14174C6.36786 3.78828 5.00008 4.89012 4.02907 6.30958C3.05806 7.72904 2.52688 9.40318 2.5019 11.1228C2.47692 12.8424 2.95926 14.5313 3.88863 15.9783C4.81801 17.4254 6.15322 18.5665 7.72741 19.2591C9.30161 19.9516 11.045 20.1649 12.7397 19.8723C14.4345 19.5797 16.0054 18.7941 17.2562 17.6138C17.3259 17.548 17.3819 17.4691 17.421 17.3816C17.4602 17.2941 17.4818 17.1998 17.4845 17.104C17.4872 17.0082 17.471 16.9128 17.4368 16.8232C17.4027 16.7336 17.3512 16.6517 17.2854 16.582C17.2195 16.5124 17.1406 16.4564 17.0532 16.4172C16.9657 16.378 16.8713 16.3565 16.7755 16.3538C16.6797 16.3511 16.5843 16.3673 16.4948 16.4014C16.4052 16.4356 16.3233 16.487 16.2536 16.5529C15.2113 17.5363 13.9024 18.1909 12.4903 18.4347C11.0782 18.6786 9.62553 18.501 8.31379 17.9241C7.00205 17.3471 5.88938 16.3965 5.11478 15.1909C4.34019 13.9853 3.93801 12.5781 3.95848 11.1453C3.97895 9.71241 4.42117 8.31735 5.2299 7.13436C6.03862 5.95137 7.178 5.03289 8.50568 4.49368C9.83337 3.95447 11.2905 3.81842 12.6951 4.10253C14.0996 4.38665 15.3893 5.07832 16.4031 6.09116C16.7257 6.41746 17.0292 6.7383 17.3246 7.06004L15.838 8.54663C15.7359 8.6486 15.6663 8.77858 15.6382 8.9201C15.61 9.06162 15.6244 9.20832 15.6797 9.34163C15.7349 9.47494 15.8284 9.58886 15.9485 9.66897C16.0685 9.74909 16.2096 9.79179 16.3539 9.79168H19.9997C20.1931 9.79168 20.3785 9.71486 20.5153 9.57811C20.652 9.44137 20.7289 9.2559 20.7289 9.06251V5.41668C20.7288 5.27247 20.686 5.1315 20.6059 5.01161C20.5257 4.89171 20.4118 4.79828 20.2786 4.74311Z" fill="#FAFBFC"/>
</g>
<defs>
<clipPath id="clip0_50_935">
<rect width="20" height="20" fill="white"/>
</clipPath>
</defs>
</svg>
