<svg width="20" height="20" viewBox="0 0 20 20" fill="none" xmlns="http://www.w3.org/2000/svg">
<path d="M11.6667 10L8.33335 6.66667V9.16667H1.66669V10.8333H8.33335V13.3333M18.3334 10C18.3337 11.9913 17.6211 13.9168 16.3244 15.4281C15.0278 16.9393 13.2328 17.9363 11.2646 18.2384C9.29643 18.5406 7.28508 18.128 5.59479 17.0754C3.9045 16.0228 2.64701 14.3997 2.05002 12.5H3.82502C4.40519 13.9342 5.46612 15.122 6.82599 15.8598C8.18586 16.5976 9.76 16.8394 11.2786 16.5439C12.7973 16.2484 14.1658 15.4339 15.1498 14.24C16.1338 13.0461 16.6719 11.5471 16.6719 10C16.6719 8.45288 16.1338 6.95393 15.1498 5.76003C14.1658 4.56613 12.7973 3.75162 11.2786 3.45609C9.76 3.16057 8.18586 3.40242 6.82599 4.14021C5.46612 4.878 4.40519 6.06578 3.82502 7.5H2.05002C2.64701 5.60034 3.9045 3.97724 5.59479 2.92461C7.28508 1.87197 9.29643 1.45939 11.2646 1.76157C13.2328 2.06375 15.0278 3.06072 16.3244 4.57194C17.6211 6.08316 18.3337 8.00874 18.3334 10Z" fill="#15803D"/>
</svg>
