<svg width="20" height="20" viewBox="0 0 20 20" fill="none" xmlns="http://www.w3.org/2000/svg">
<rect width="20" height="20" fill="white" fill-opacity="0.01"/>
<path fill-rule="evenodd" clip-rule="evenodd" d="M4.90799 2.37346C4.00573 2.48806 3.47948 2.70457 3.09717 3.06562C2.72045 3.42139 2.49822 3.90394 2.37932 4.73953C2.25731 5.59698 2.25581 6.72827 2.25581 8.32558V11.6744C2.25581 13.2717 2.25731 14.403 2.37932 15.2605C2.49822 16.0961 2.72044 16.5786 3.09716 16.9344C3.47947 17.2954 4.00573 17.5119 4.90799 17.6265C5.82482 17.743 7.03121 17.7442 8.71907 17.7442C8.72327 17.7442 8.72745 17.7442 8.73163 17.7443C8.7358 17.7442 8.73999 17.7442 8.74419 17.7442H10C10.3468 17.7442 10.6279 18.0253 10.6279 18.3721C10.6279 18.7189 10.3468 19 10 19H8.74419C8.73999 19 8.73581 19 8.73163 18.9999C8.72745 19 8.72327 19 8.71907 19H8.67396C7.04112 19 5.75492 19 4.74975 18.8723C3.72078 18.7416 2.89159 18.4675 2.23492 17.8474C1.57352 17.2228 1.27666 16.4257 1.13603 15.4374C0.999972 14.4813 0.999985 13.2605 1 11.7241V8.27594C0.999985 6.73951 0.999972 5.51875 1.13603 4.56261C1.27666 3.57434 1.57352 2.77721 2.23493 2.1526C2.8916 1.53245 3.72078 1.25835 4.74975 1.12766C5.75492 0.999981 7.04113 0.999989 8.67398 1H9.65163C11.2849 0.999989 12.5711 0.999981 13.5762 1.12766C14.6051 1.25836 15.434 1.53248 16.0907 2.15261C16.7521 2.77722 17.0489 3.57434 17.1896 4.56261C17.3256 5.51875 17.3256 6.73952 17.3256 8.27596V8.32558C17.3256 8.67236 17.0445 8.95349 16.6977 8.95349C16.3509 8.95349 16.0698 8.67236 16.0698 8.32558C16.0698 6.72827 16.0683 5.59698 15.9463 4.73953C15.8274 3.90394 15.6051 3.4214 15.2284 3.06563C14.8461 2.70455 14.32 2.48806 13.4179 2.37346C12.5012 2.25701 11.2948 2.25581 9.60651 2.25581H8.71907C7.03121 2.25581 5.82482 2.25701 4.90799 2.37346ZM5.18605 5.81395C5.18605 5.46717 5.46717 5.18605 5.81395 5.18605H12.5116C12.8584 5.18605 13.1395 5.46717 13.1395 5.81395C13.1395 6.16074 12.8584 6.44186 12.5116 6.44186H5.81395C5.46717 6.44186 5.18605 6.16074 5.18605 5.81395ZM5.18605 10C5.18605 9.65322 5.46717 9.37209 5.81395 9.37209H10C10.3468 9.37209 10.6279 9.65322 10.6279 10C10.6279 10.3468 10.3468 10.6279 10 10.6279H5.81395C5.46717 10.6279 5.18605 10.3468 5.18605 10Z" fill="#FAFBFC"/>
<path fill-rule="evenodd" clip-rule="evenodd" d="M14.3415 12.3337L12.3061 12.8505C12.3929 15.0618 13.0667 16.2729 13.6562 16.9241C13.9604 17.26 14.2553 17.4616 14.465 17.5771C14.5148 17.6045 14.5598 17.627 14.5989 17.6453C14.6381 17.627 14.6831 17.6045 14.7328 17.5771C14.9426 17.4616 15.2375 17.26 15.5416 16.9241C16.1312 16.2729 16.8049 15.0618 16.8918 12.8505L14.8563 12.3337C14.6873 12.2908 14.5105 12.2908 14.3415 12.3337ZM14.5989 18.3181C14.4374 18.9249 14.4364 18.9246 14.4364 18.9246L14.4354 18.9244L14.4331 18.9237L14.4277 18.9223L14.4139 18.9183C14.4033 18.9152 14.3901 18.9112 14.3744 18.9061C14.3431 18.8959 14.3017 18.8816 14.2517 18.8622C14.1519 18.8234 14.0173 18.7641 13.8595 18.6773C13.5434 18.5033 13.1342 18.2186 12.7253 17.7669C11.8985 16.8538 11.1227 15.3143 11.0469 12.7761L11.0468 12.7702C11.0416 12.5168 11.1224 12.269 11.2761 12.0673C11.4297 11.8658 11.647 11.7222 11.8926 11.6599L14.0325 11.1165C14.4043 11.0221 14.7935 11.0221 15.1653 11.1165L17.3063 11.6601C17.8058 11.7878 18.1664 12.2448 18.1509 12.7757C18.0751 15.3139 17.2994 16.8538 16.4726 17.7669C16.0637 18.2186 15.6545 18.5033 15.3384 18.6773C15.1805 18.7641 15.046 18.8234 14.9461 18.8622C14.8962 18.8816 14.8548 18.8959 14.8234 18.9061C14.8077 18.9112 14.7945 18.9152 14.784 18.9183L14.7702 18.9223L14.7648 18.9237L14.7625 18.9244L14.7614 18.9246C14.7614 18.9246 14.7604 18.9249 14.5989 18.3181ZM14.5989 18.3181L14.7604 18.9249C14.6546 18.9531 14.5432 18.9531 14.4374 18.9249L14.5989 18.3181Z" fill="#FAFBFC"/>
</svg>
