<svg width="20" height="20" viewBox="0 0 20 20" fill="none" xmlns="http://www.w3.org/2000/svg">
<rect width="20" height="20" fill="white" fill-opacity="0.01"/>
<path fill-rule="evenodd" clip-rule="evenodd" d="M4.93165 2.40879C4.03357 2.52286 3.50975 2.73836 3.12921 3.09775C2.75423 3.45186 2.53304 3.93218 2.41468 4.7639C2.29323 5.61738 2.29175 6.74343 2.29175 8.33335V11.6667C2.29175 13.2566 2.29323 14.3827 2.41468 15.2361C2.53304 16.0679 2.75422 16.5482 3.1292 16.9023C3.50974 17.2617 4.03357 17.4772 4.93165 17.5913C5.84423 17.7072 7.04504 17.7084 8.72508 17.7084H9.60841C9.95359 17.7084 10.2334 17.9882 10.2334 18.3334C10.2334 18.6785 9.95359 18.9584 9.60841 18.9584H8.68018C7.0549 18.9584 5.77466 18.9584 4.77414 18.8313C3.74993 18.7012 2.92458 18.4284 2.27095 17.8111C1.61261 17.1894 1.31713 16.3959 1.17715 15.4122C1.04172 14.4605 1.04173 13.2454 1.04175 11.7161V8.28394C1.04173 6.75463 1.04172 5.53952 1.17715 4.5878C1.31713 3.60411 1.61261 2.81067 2.27096 2.18895C2.92459 1.57167 3.74993 1.29885 4.77414 1.16875C5.77466 1.04167 7.05491 1.04168 8.6802 1.04169H9.65333C11.279 1.04168 12.5593 1.04167 13.5597 1.16875C14.5838 1.29885 15.4089 1.57171 16.0625 2.18896C16.7209 2.81068 17.0164 3.60411 17.1563 4.5878C17.2918 5.53952 17.2918 6.75464 17.2917 8.28396V8.75002C17.2917 9.0952 17.0119 9.37502 16.6667 9.37502C16.3216 9.37502 16.0417 9.0952 16.0417 8.75002V8.33335C16.0417 6.74343 16.0403 5.61738 15.9188 4.7639C15.8005 3.93218 15.5793 3.45187 15.2043 3.09776C14.8237 2.73835 14.3001 2.52285 13.4022 2.40879C12.4897 2.29287 11.2889 2.29169 9.60841 2.29169H8.72508C7.04504 2.29169 5.84423 2.29287 4.93165 2.40879ZM5.20842 5.83335C5.20842 5.48818 5.48824 5.20835 5.83342 5.20835H12.5001C12.8453 5.20835 13.1251 5.48818 13.1251 5.83335C13.1251 6.17853 12.8453 6.45835 12.5001 6.45835H5.83342C5.48824 6.45835 5.20842 6.17853 5.20842 5.83335ZM5.20842 10C5.20842 9.65484 5.48824 9.37502 5.83342 9.37502H10.0001C10.3453 9.37502 10.6251 9.65484 10.6251 10C10.6251 10.3452 10.3453 10.625 10.0001 10.625H5.83342C5.48824 10.625 5.20842 10.3452 5.20842 10Z" fill="#FAFBFC"/>
<path fill-rule="evenodd" clip-rule="evenodd" d="M15.0001 10.2084C15.3453 10.2084 15.6251 10.4882 15.6251 10.8334V11.3348C16.3266 11.4613 16.9547 11.7969 17.4356 12.2749L17.9955 11.9151C18.2859 11.7285 18.6725 11.8126 18.8592 12.1029C19.0458 12.3933 18.9617 12.78 18.6713 12.9666L18.1407 13.3077C18.313 13.7084 18.4031 14.1422 18.4031 14.5825C18.4031 15.0234 18.3128 15.4571 18.1402 15.8579L18.6713 16.1993C18.9617 16.3859 19.0458 16.7726 18.8592 17.063C18.6725 17.3533 18.2859 17.4374 17.9955 17.2508L17.4342 16.89C17.1865 17.1363 16.9016 17.3441 16.589 17.5052C16.2847 17.6621 15.9597 17.7719 15.6251 17.832V18.3334C15.6251 18.6785 15.3453 18.9584 15.0001 18.9584C14.6549 18.9584 14.3751 18.6785 14.3751 18.3334V17.8328C14.0404 17.7727 13.7154 17.6629 13.4111 17.5061C13.0983 17.3448 12.8133 17.1369 12.5654 16.8904L12.0047 17.2508C11.7143 17.4374 11.3276 17.3533 11.141 17.063C10.9544 16.7726 11.0384 16.3859 11.3288 16.1993L11.8599 15.8579C11.6874 15.4571 11.597 15.0234 11.597 14.5825C11.597 14.1422 11.6872 13.7089 11.8594 13.3085L11.3288 12.9675C11.0384 12.7808 10.9544 12.3941 11.141 12.1038C11.3276 11.8134 11.7143 11.7293 12.0047 11.9159L12.5659 12.2767C12.8137 12.0304 13.0985 11.8226 13.4111 11.6615C13.7154 11.5046 14.0404 11.3948 14.3751 11.3347V10.8334C14.3751 10.4882 14.6549 10.2084 15.0001 10.2084ZM15.0406 12.5295C15.0257 12.5305 15.0107 12.5309 14.9957 12.5308C14.6438 12.5284 14.2966 12.6113 13.9839 12.7725C13.6773 12.9306 13.4129 13.1591 13.2122 13.4394C13.2031 13.4534 13.1935 13.4669 13.1834 13.48C12.9643 13.8057 12.847 14.1895 12.847 14.5825C12.847 14.9861 12.9707 15.38 13.2013 15.7112C13.2068 15.719 13.212 15.727 13.2171 15.735C13.4172 16.0121 13.6798 16.2383 13.9839 16.395C14.2881 16.5518 14.6249 16.6346 14.9669 16.6367C14.9793 16.6361 14.9919 16.6358 15.0045 16.6359C15.3563 16.6383 15.7035 16.5554 16.0163 16.3942C16.3228 16.2362 16.5873 16.0076 16.788 15.7274C16.7915 15.7219 16.7951 15.7165 16.7989 15.7112C17.0295 15.38 17.1531 14.9861 17.1531 14.5825C17.1531 14.1893 17.0358 13.8047 16.8167 13.4791C16.806 13.4651 16.7957 13.4506 16.786 13.4355C16.7845 13.4331 16.7829 13.4307 16.7814 13.4283C16.4032 12.8992 15.7694 12.5423 15.0406 12.5295Z" fill="#FAFBFC"/>
</svg>
