<svg width="20" height="20" viewBox="0 0 20 20" fill="none" xmlns="http://www.w3.org/2000/svg">
<rect width="20" height="20" fill="white" fill-opacity="0.01"/>
<path d="M10.0001 0.833313C8.19162 0.833313 6.45722 1.55764 5.17845 2.84695C3.89967 4.13627 3.18126 5.88495 3.18126 7.70831V11.3765L1.72052 15.0646C1.67477 15.1804 1.65783 15.3057 1.67118 15.4297C1.68453 15.5536 1.72776 15.6724 1.79711 15.7756C1.86646 15.8788 1.95981 15.9634 2.06901 16.0218C2.17822 16.0803 2.29996 16.111 2.42361 16.1111H6.96949C6.96949 17.8039 8.32114 19.1666 10.0001 19.1666C11.679 19.1666 13.0307 17.8039 13.0307 16.1111H17.5766C17.7002 16.111 17.8219 16.0803 17.9312 16.0218C18.0404 15.9634 18.1337 15.8788 18.2031 15.7756C18.2724 15.6724 18.3156 15.5536 18.329 15.4297C18.3423 15.3057 18.3254 15.1804 18.2796 15.0646L16.8189 11.375V7.70831C16.8189 5.88495 16.1005 4.13627 14.8217 2.84695C13.5429 1.55764 11.8085 0.833313 10.0001 0.833313ZM11.5154 16.1111C11.5154 16.9605 10.8426 17.6389 10.0001 17.6389C9.15758 17.6389 8.48479 16.9605 8.48479 16.1111H11.5154ZM4.69655 7.70831C4.69655 6.29014 5.25532 4.93005 6.24992 3.92726C7.24453 2.92446 8.5935 2.36109 10.0001 2.36109C11.4067 2.36109 12.7556 2.92446 13.7502 3.92726C14.7448 4.93005 15.3036 6.29014 15.3036 7.70831V11.5247C15.3039 11.6215 15.3224 11.7175 15.3582 11.8073L16.4583 14.5833H3.5419L4.642 11.8073C4.67779 11.7175 4.69631 11.6215 4.69655 11.5247V7.70831Z" fill="#FAFBFC"/>
</svg>
