<svg width="20" height="20" viewBox="0 0 20 20" fill="none" xmlns="http://www.w3.org/2000/svg">
<path d="M18.3334 10L15 6.66669V9.16669H8.33335V10.8334H15V13.3334M16.6667 15C15.6173 16.3992 14.1542 17.4328 12.4847 17.9543C10.8153 18.4758 9.02406 18.4588 7.36479 17.9057C5.70552 17.3526 4.26234 16.2915 3.23967 14.8726C2.217 13.4537 1.66669 11.749 1.66669 10C1.66669 8.251 2.217 6.54631 3.23967 5.12743C4.26234 3.70856 5.70552 2.64742 7.36479 2.09433C9.02406 1.54124 10.8153 1.52424 12.4847 2.04574C14.1542 2.56724 15.6173 3.6008 16.6667 5.00002H14.3917C13.4295 4.15141 12.2428 3.59847 10.9741 3.40757C9.70538 3.21666 8.40854 3.3959 7.23918 3.92377C6.06982 4.45164 5.07762 5.30571 4.38163 6.38351C3.68564 7.4613 3.31543 8.71704 3.31543 10C3.31543 11.283 3.68564 12.5387 4.38163 13.6165C5.07762 14.6943 6.06982 15.5484 7.23918 16.0763C8.40854 16.6041 9.70538 16.7834 10.9741 16.5925C12.2428 16.4016 13.4295 15.8486 14.3917 15H16.6667Z" fill="#DF2020"/>
</svg>
