<svg width="32" height="32" viewBox="0 0 32 32" fill="none" xmlns="http://www.w3.org/2000/svg">
<circle cx="16" cy="16" r="16" fill="#3B82F6"/>
<path d="M10.3999 7.19922V24.7992H13.5999V18.3992H17.5999C18.3353 18.3992 19.0635 18.2544 19.7429 17.9729C20.4224 17.6915 21.0397 17.279 21.5597 16.759C22.0797 16.239 22.4922 15.6217 22.7736 14.9422C23.0551 14.2628 23.1999 13.5346 23.1999 12.7992C23.1999 12.0638 23.0551 11.3356 22.7736 10.6562C22.4922 9.97677 22.0797 9.35943 21.5597 8.83942C21.0397 8.31941 20.4224 7.90692 19.7429 7.62549C19.0635 7.34407 18.3353 7.19922 17.5999 7.19922H10.3999ZM13.5999 15.1992V10.3992H17.5999C17.9151 10.3992 18.2272 10.4613 18.5183 10.5819C18.8095 10.7025 19.0741 10.8793 19.297 11.1022C19.5198 11.325 19.6966 11.5896 19.8172 11.8808C19.9378 12.172 19.9999 12.484 19.9999 12.7992C19.9999 13.1144 19.9378 13.4265 19.8172 13.7177C19.6966 14.0088 19.5198 14.2734 19.297 14.4963C19.0741 14.7191 18.8095 14.8959 18.5183 15.0165C18.2272 15.1371 17.9151 15.1992 17.5999 15.1992H13.5999Z" fill="white"/>
</svg>
