<svg width="20" height="20" viewBox="0 0 20 20" fill="none" xmlns="http://www.w3.org/2000/svg">
<rect width="20" height="20" fill="white" fill-opacity="0.01"/>
<path fill-rule="evenodd" clip-rule="evenodd" d="M11.8217 1.66993C12.1668 1.66993 12.4467 1.94975 12.4467 2.29493V5.2916C12.4467 5.53119 12.5421 5.76188 12.7128 5.93215C12.8846 6.1032 13.1173 6.19919 13.3598 6.1991H16.7975C17.1427 6.1991 17.4225 6.47892 17.4225 6.8241C17.4225 7.16927 17.1427 7.4491 16.7975 7.4491H13.3602C13.3602 7.4491 13.3603 7.4491 13.3602 7.4491C12.787 7.44925 12.2369 7.22227 11.8307 6.81784C11.4248 6.41313 11.1967 5.86358 11.1967 5.2916V2.29493C11.1967 1.94975 11.4765 1.66993 11.8217 1.66993Z" fill="#FAFBFC"/>
<path fill-rule="evenodd" clip-rule="evenodd" d="M6.79676 2.91866C6.01681 2.88965 5.25726 3.17152 4.68505 3.70231L4.68431 3.70299C4.40175 3.96426 4.17368 4.27887 4.01326 4.62869C3.8543 4.97532 3.76487 5.34972 3.75 5.7307V14.2689C3.76528 14.6526 3.85583 15.0295 4.01655 15.3783C4.17872 15.7302 4.40909 16.0464 4.69433 16.3087C4.98118 16.5715 5.31712 16.7751 5.68288 16.9077C6.04879 17.0404 6.43731 17.0994 6.82611 17.0814C6.83573 17.081 6.84536 17.0808 6.855 17.0808H13.18C13.1877 17.0808 13.1955 17.0809 13.2032 17.0812C13.9832 17.1102 14.7427 16.8283 15.315 16.2976L15.3156 16.2969C15.5982 16.0356 15.8263 15.721 15.9867 15.3711C16.1456 15.0245 16.2351 14.6501 16.25 14.2691V7.14772C16.2438 6.89015 16.1839 6.63669 16.0741 6.40356C15.9635 6.16862 15.8046 5.95959 15.6079 5.79007C15.6028 5.78568 15.5977 5.7812 15.5928 5.77665L13.1281 3.51017C12.7047 3.12801 12.1541 2.91727 11.5837 2.91909L11.5817 2.9191H6.82C6.81225 2.9191 6.80451 2.91895 6.79676 2.91866ZM6.83115 1.6691C5.72447 1.63111 4.64747 2.03235 3.83532 2.78554C3.43182 3.15873 3.10614 3.60805 2.87704 4.10764C2.64786 4.60738 2.51986 5.14753 2.50039 5.69697C2.50013 5.70434 2.5 5.71172 2.5 5.7191V14.2808C2.5 14.2883 2.50014 14.2958 2.50041 14.3033C2.52038 14.856 2.64985 15.3992 2.88129 15.9014C3.11274 16.4037 3.44157 16.855 3.84872 17.2292L3.84935 17.2298C4.25771 17.6041 4.73602 17.894 5.2568 18.0829C5.77287 18.27 6.32054 18.3542 6.86889 18.3308H13.1689C14.2755 18.3687 15.3525 17.9675 16.1647 17.2143C16.5682 16.8411 16.8938 16.3918 17.1229 15.8922C17.3521 15.3925 17.4801 14.8524 17.4996 14.303C17.4999 14.2956 17.5 14.2882 17.5 14.2808V7.14076L17.4999 7.12778C17.4908 6.69278 17.3903 6.26456 17.205 5.87094C17.0211 5.48054 16.7578 5.13285 16.4319 4.85009L13.9722 2.58821L13.9684 2.58474C13.3142 1.99301 12.4628 1.66653 11.5807 1.6691H11.5817V2.2941L11.5797 1.6691C11.58 1.6691 11.5804 1.6691 11.5807 1.6691M5.7475 6.37326C5.7475 6.02808 6.02732 5.74826 6.3725 5.74826H9.09333C9.43851 5.74826 9.71833 6.02808 9.71833 6.37326C9.71833 6.71844 9.43851 6.99826 9.09333 6.99826H6.3725C6.02732 6.99826 5.7475 6.71844 5.7475 6.37326ZM5.7475 10.0008C5.7475 9.65559 6.02732 9.37576 6.3725 9.37576H13.6275C13.9727 9.37576 14.2525 9.65559 14.2525 10.0008C14.2525 10.3459 13.9727 10.6258 13.6275 10.6258H6.3725C6.02732 10.6258 5.7475 10.3459 5.7475 10.0008ZM5.7475 13.6283C5.7475 13.2831 6.02732 13.0033 6.3725 13.0033H13.6275C13.9727 13.0033 14.2525 13.2831 14.2525 13.6283C14.2525 13.9734 13.9727 14.2533 13.6275 14.2533H6.3725C6.02732 14.2533 5.7475 13.9734 5.7475 13.6283Z" fill="#FAFBFC"/>
</svg>
