<svg width="20" height="20" viewBox="0 0 20 20" fill="none" xmlns="http://www.w3.org/2000/svg">
<g clip-path="url(#clip0_152_1564)">
<path d="M9.9999 2.92919L2.92907 10L9.9999 17.0709L17.0707 10L9.9999 2.92919ZM10.5891 1.16086L18.8391 9.41086C18.9953 9.56713 19.0831 9.77905 19.0831 10C19.0831 10.221 18.9953 10.4329 18.8391 10.5892L10.5891 18.8392C10.4328 18.9954 10.2209 19.0832 9.9999 19.0832C9.77893 19.0832 9.56701 18.9954 9.41074 18.8392L1.16074 10.5892C1.00451 10.4329 0.916748 10.221 0.916748 10C0.916748 9.77905 1.00451 9.56713 1.16074 9.41086L9.41074 1.16086C9.56701 1.00463 9.77893 0.91687 9.9999 0.91687C10.2209 0.91687 10.4328 1.00463 10.5891 1.16086ZM10.8332 8.33336V6.25003L13.7499 9.16669L10.8332 12.0834V10H8.33324V12.5H6.66657V9.16669C6.66657 8.94568 6.75437 8.73372 6.91065 8.57744C7.06693 8.42116 7.27889 8.33336 7.4999 8.33336H10.8332Z" fill="#42526E"/>
</g>
<defs>
<clipPath id="clip0_152_1564">
<rect width="20" height="20" fill="white"/>
</clipPath>
</defs>
</svg>
