<svg width="20" height="20" viewBox="0 0 20 20" fill="none" xmlns="http://www.w3.org/2000/svg">
<rect width="20" height="20" fill="white" fill-opacity="0.01"/>
<path d="M10.5003 6.43293C9.56262 6.43293 8.66331 6.80909 8.00025 7.47864C7.33719 8.1482 6.96468 9.05632 6.96468 10.0032C6.96468 10.9501 7.33719 11.8582 8.00025 12.5278C8.66331 13.1973 9.56262 13.5735 10.5003 13.5735C11.438 13.5735 12.3373 13.1973 13.0004 12.5278C13.6635 11.8582 14.036 10.9501 14.036 10.0032C14.036 9.05632 13.6635 8.1482 13.0004 7.47864C12.3373 6.80909 11.438 6.43293 10.5003 6.43293ZM8.37894 10.0032C8.37894 9.43507 8.60244 8.89021 9.00028 8.48847C9.39812 8.08674 9.9377 7.86104 10.5003 7.86104C11.063 7.86104 11.6025 8.08674 12.0004 8.48847C12.3982 8.89021 12.6217 9.43507 12.6217 10.0032C12.6217 10.5714 12.3982 11.1162 12.0004 11.518C11.6025 11.9197 11.063 12.1454 10.5003 12.1454C9.9377 12.1454 9.39812 11.9197 9.00028 11.518C8.60244 11.1162 8.37894 10.5714 8.37894 10.0032ZM8.2658 19.7344C8.99768 19.9107 9.74794 20 10.5003 20C11.252 19.9988 12.001 19.909 12.732 19.7322C12.9421 19.6822 13.1316 19.5678 13.2747 19.4047C13.4178 19.2415 13.5073 19.0377 13.5311 18.8211L13.6966 17.3002C13.7125 17.1342 13.7673 16.9745 13.8565 16.8343C13.9457 16.694 14.0667 16.5772 14.2094 16.4934C14.3522 16.4097 14.5126 16.3615 14.6775 16.3528C14.8423 16.3441 15.0069 16.3751 15.1575 16.4433L16.5399 17.0545C16.7378 17.1425 16.9579 17.166 17.1697 17.1219C17.3814 17.0777 17.5743 16.9681 17.7215 16.8082C18.743 15.6968 19.5055 14.3689 19.9532 12.9216C20.0174 12.7122 20.0155 12.4879 19.9477 12.2797C19.8799 12.0715 19.7496 11.8898 19.5749 11.7598L18.3523 10.8494C18.2187 10.7511 18.1101 10.6223 18.0353 10.4735C17.9605 10.3248 17.9216 10.1602 17.9218 9.99338C17.922 9.82653 17.9613 9.66209 18.0365 9.51351C18.1117 9.36493 18.2206 9.23642 18.3544 9.13849L19.5707 8.23164C19.7464 8.10195 19.8775 7.91998 19.9456 7.71124C20.0137 7.50251 20.0154 7.27748 19.9504 7.06773C19.5035 5.6199 18.7406 4.29176 17.718 3.18112C17.5701 3.02149 17.3769 2.91207 17.1649 2.86795C16.9529 2.82384 16.7326 2.84718 16.5343 2.93477L15.1582 3.546C15.0074 3.61239 14.8432 3.64201 14.6789 3.63247C14.5147 3.62293 14.3549 3.57449 14.2126 3.49108C14.0703 3.40766 13.9495 3.2916 13.8598 3.15229C13.7702 3.01298 13.7142 2.85432 13.6966 2.68914L13.5297 1.17534C13.5063 0.956161 13.4155 0.749891 13.27 0.585552C13.1245 0.421212 12.9317 0.307075 12.7186 0.259202C11.9925 0.0953609 11.2514 0.00848958 10.5074 0C9.759 0.00894855 9.01352 0.0958088 8.28277 0.259202C8.06966 0.306257 7.87663 0.419865 7.73105 0.583919C7.58546 0.747972 7.49473 0.954143 7.47169 1.17319L7.3041 2.68842C7.2858 2.85385 7.22938 3.01266 7.13937 3.15212C7.04937 3.29157 6.92827 3.40781 6.78578 3.49152C6.64329 3.57522 6.48337 3.62407 6.31883 3.63416C6.15429 3.64424 5.98969 3.61527 5.83823 3.54957L4.46215 2.93763C4.26361 2.85247 4.04399 2.83077 3.83286 2.87545C3.62173 2.92013 3.42923 3.02905 3.28125 3.18755C2.25848 4.29926 1.49499 5.62797 1.04672 7.0763C0.982919 7.28552 0.985125 7.50959 1.05303 7.71749C1.12094 7.92538 1.25119 8.10681 1.42574 8.23664L2.64554 9.14492C2.77842 9.24365 2.88644 9.37255 2.96089 9.52121C3.03534 9.66987 3.07413 9.83412 3.07413 10.0007C3.07413 10.1673 3.03534 10.3316 2.96089 10.4802C2.88644 10.6289 2.77842 10.7578 2.64554 10.8565L1.42574 11.7669C1.25053 11.897 1.1199 12.0791 1.05209 12.2877C0.984266 12.4964 0.982638 12.7212 1.04743 12.9308C1.49549 14.3801 2.25898 15.7098 3.28195 16.8225C3.37921 16.928 3.49712 17.0121 3.62821 17.0692C3.75931 17.1264 3.90074 17.1554 4.04353 17.1545C4.18708 17.1545 4.32921 17.1245 4.46145 17.0667L5.84388 16.4533C5.99467 16.3875 6.15863 16.3583 6.3226 16.3682C6.48657 16.378 6.64596 16.4265 6.78798 16.5099C6.93 16.5932 7.05068 16.709 7.14032 16.848C7.22995 16.987 7.28605 17.1453 7.3041 17.3102L7.47028 18.8282C7.49441 19.0437 7.58375 19.2463 7.72611 19.4086C7.86847 19.5709 8.05693 19.6842 8.2658 19.7344ZM12.1557 18.4027C11.0647 18.6286 9.93953 18.6286 8.84847 18.4027L8.71058 17.1602C8.64318 16.5524 8.35616 15.991 7.90446 15.5836C7.55081 15.2691 7.11632 15.062 6.65113 14.9862C6.18594 14.9104 5.709 14.969 5.27535 15.1551L4.1397 15.655C3.40711 14.8079 2.84335 13.8259 2.47936 12.763L3.48632 12.0119C3.79741 11.7804 4.05029 11.4783 4.22457 11.13C4.39884 10.7818 4.48964 10.397 4.48964 10.0068C4.48964 9.61657 4.39884 9.23181 4.22457 8.88353C4.05029 8.53525 3.79741 8.23319 3.48632 8.00171L2.48148 7.25196C2.8459 6.19012 3.40963 5.20919 4.14182 4.36288L5.27323 4.86272C5.58507 5.00178 5.92232 5.07329 6.26321 5.07266C6.87027 5.07073 7.45546 4.84358 7.90749 4.43439C8.35951 4.0252 8.64684 3.46252 8.71483 2.85337L8.85201 1.60591C9.39933 1.4988 9.95513 1.44168 10.5116 1.43454C11.0646 1.44168 11.6162 1.4988 12.1593 1.60591L12.2908 2.84837C12.3563 3.45792 12.6426 4.02149 13.0948 4.43072C13.4487 4.74709 13.8843 4.95535 14.3509 5.03121C14.8176 5.10707 15.2959 5.04739 15.7303 4.85915L16.8617 4.35931C17.5949 5.20539 18.1592 6.18667 18.5234 7.2491L17.5172 7.996C17.2045 8.22668 16.9501 8.52862 16.7748 8.87728C16.5994 9.22593 16.508 9.61146 16.508 10.0025C16.508 10.3935 16.5994 10.7791 16.7748 11.1277C16.9501 11.4764 17.2045 11.7783 17.5172 12.009L18.5227 12.7588C18.1581 13.8192 17.5952 14.799 16.8645 15.645L15.7331 15.1451C15.379 14.986 14.9927 14.9138 14.6057 14.9343C14.2187 14.9549 13.8421 15.0676 13.5065 15.2633C13.1709 15.459 12.8859 15.7321 12.6749 16.0603C12.4638 16.3885 12.3327 16.7625 12.2922 17.1516L12.1557 18.4027Z" fill="#FAFBFC"/>
</svg>
