<svg width="20" height="20" viewBox="0 0 20 20" fill="none" xmlns="http://www.w3.org/2000/svg">
<g clip-path="url(#clip0_152_1572)">
<path d="M10.0001 1.66669C14.6026 1.66669 18.3334 5.39752 18.3334 10C18.3334 14.6025 14.6026 18.3334 10.0001 18.3334C5.39758 18.3334 1.66675 14.6025 1.66675 10C1.66675 5.39752 5.39758 1.66669 10.0001 1.66669ZM10.0001 3.33335C8.23197 3.33335 6.53628 4.03573 5.28604 5.28598C4.03579 6.53622 3.33341 8.23191 3.33341 10C3.33341 11.7681 4.03579 13.4638 5.28604 14.7141C6.53628 15.9643 8.23197 16.6667 10.0001 16.6667C11.7682 16.6667 13.4639 15.9643 14.7141 14.7141C15.9644 13.4638 16.6667 11.7681 16.6667 10C16.6667 8.23191 15.9644 6.53622 14.7141 5.28598C13.4639 4.03573 11.7682 3.33335 10.0001 3.33335ZM10.0001 5.00002C10.2042 5.00005 10.4012 5.07498 10.5537 5.21062C10.7063 5.34625 10.8037 5.53314 10.8276 5.73585L10.8334 5.83335V9.65502L13.0892 11.9109C13.2387 12.0608 13.3255 12.262 13.3319 12.4737C13.3384 12.6853 13.2641 12.8914 13.124 13.0503C12.984 13.2091 12.7888 13.3086 12.578 13.3287C12.3673 13.3488 12.1567 13.2879 11.9892 13.1584L11.9109 13.0892L9.41091 10.5892C9.2814 10.4596 9.19822 10.2909 9.17425 10.1092L9.16675 10V5.83335C9.16675 5.61234 9.25455 5.40038 9.41083 5.2441C9.56711 5.08782 9.77907 5.00002 10.0001 5.00002Z" fill="#42526E"/>
</g>
<defs>
<clipPath id="clip0_152_1572">
<rect width="20" height="20" fill="white"/>
</clipPath>
</defs>
</svg>
