<svg width="20" height="20" viewBox="0 0 20 20" fill="none" xmlns="http://www.w3.org/2000/svg">
<path fill-rule="evenodd" clip-rule="evenodd" d="M10.0001 2.29163C7.08058 2.29163 4.79175 4.48414 4.79175 7.09579C4.79175 9.86848 6.54576 13.0825 9.17818 14.2082C9.43817 14.3184 9.71768 14.3752 10.0001 14.3752C10.2825 14.3752 10.562 14.3184 10.822 14.2082C13.4544 13.0825 15.2084 9.86928 15.2084 7.09579C15.2084 4.48414 12.9196 2.29163 10.0001 2.29163ZM3.54175 7.09579C3.54175 3.71078 6.47625 1.04163 10.0001 1.04163C13.5239 1.04163 16.4584 3.71078 16.4584 7.09579C16.4584 10.272 14.4895 14 11.3124 15.358L11.3109 15.3586C10.8963 15.5346 10.4505 15.6252 10.0001 15.6252C9.54969 15.6252 9.1039 15.5346 8.68929 15.3586L8.68777 15.358C5.51068 14 3.54175 10.2711 3.54175 7.09579Z" fill="white"/>
<path fill-rule="evenodd" clip-rule="evenodd" d="M10.0001 6.45829C9.72381 6.45829 9.45886 6.56804 9.26351 6.76339C9.06816 6.95874 8.95842 7.22369 8.95842 7.49996C8.95842 7.77623 9.06816 8.04118 9.26351 8.23653C9.45886 8.43188 9.72381 8.54163 10.0001 8.54163C10.2763 8.54163 10.5413 8.43188 10.7367 8.23653C10.932 8.04118 11.0417 7.77623 11.0417 7.49996C11.0417 7.22369 10.932 6.95874 10.7367 6.76339C10.5413 6.56804 10.2763 6.45829 10.0001 6.45829ZM8.37963 5.87951C8.8094 5.44974 9.39229 5.20829 10.0001 5.20829C10.6079 5.20829 11.1908 5.44974 11.6205 5.87951C12.0503 6.30928 12.2917 6.89217 12.2917 7.49996C12.2917 8.10775 12.0503 8.69064 11.6205 9.12041C11.1908 9.55018 10.6079 9.79163 10.0001 9.79163C9.39229 9.79163 8.8094 9.55018 8.37963 9.12041C7.94986 8.69064 7.70842 8.10775 7.70842 7.49996C7.70842 6.89217 7.94986 6.30928 8.37963 5.87951Z" fill="white"/>
<path fill-rule="evenodd" clip-rule="evenodd" d="M2.99707 12.4975C3.22854 12.7536 3.20859 13.1488 2.95252 13.3803C2.47946 13.8079 2.29175 14.2186 2.29175 14.5833C2.29175 15.2196 2.89505 16.0039 4.36397 16.6649C5.7742 17.2995 7.76629 17.7083 10.0001 17.7083C12.2339 17.7083 14.226 17.2995 15.6362 16.6649C17.1051 16.0039 17.7084 15.2196 17.7084 14.5833C17.7084 14.2186 17.5207 13.8079 17.0476 13.3803C16.7916 13.1488 16.7716 12.7536 17.0031 12.4975C17.2346 12.2415 17.6298 12.2215 17.8858 12.453C18.5228 13.0287 18.9584 13.7514 18.9584 14.5833C18.9584 16.0178 17.6963 17.1086 16.1492 17.8048C14.5434 18.5275 12.3688 18.9583 10.0001 18.9583C7.63137 18.9583 5.4568 18.5275 3.85099 17.8048C2.30386 17.1086 1.04175 16.0178 1.04175 14.5833C1.04175 13.7514 1.47737 13.0287 2.11431 12.453C2.37038 12.2215 2.76561 12.2415 2.99707 12.4975Z" fill="white"/>
</svg>
