<svg width="37" height="33" viewBox="0 0 37 33" fill="none" xmlns="http://www.w3.org/2000/svg">
<path d="M15.9744 29.9895C15.5008 29.864 15.0801 29.5894 14.7745 29.2063C14.4688 28.8233 14.2944 28.352 14.277 27.8622L13.7372 16.2603L3.84238 10.1858C3.42217 9.93392 3.09402 9.55359 2.90631 9.10091C2.7186 8.64824 2.68127 8.14718 2.79982 7.67161L2.81066 7.62949C2.92613 7.16293 3.18561 6.74461 3.55225 6.43393C3.91889 6.12326 4.37405 5.93603 4.85307 5.89886L31.9022 3.09633C31.9103 3.09524 31.9184 3.09482 31.9265 3.09509C32.3592 3.06049 32.7929 3.14807 33.1783 3.34787C33.5636 3.54767 33.8852 3.85166 34.1064 4.22526C34.3275 4.59887 34.4394 5.02708 34.4293 5.4612C34.4192 5.89532 34.2875 6.31791 34.0492 6.68089L34.0364 6.70155L18.5175 29.0465C18.2496 29.4545 17.8582 29.7661 17.4007 29.9357C16.9431 30.1054 16.4434 30.1242 15.9744 29.9895Z" fill="#2E9245" stroke="white" stroke-width="4.22708" stroke-linejoin="round"/>
</svg>
