<svg width="68" height="18" viewBox="0 0 68 18" fill="none" xmlns="http://www.w3.org/2000/svg">
<path d="M4.8 16.304C4.592 15.664 4.408 15.04 4.248 14.432L3.48 11.792C3.224 10.928 3.024 10.28 2.88 9.848C2.752 9.368 2.648 9.008 2.568 8.768L0.12 0.487999H5.016L9.504 17H5.016L4.8 16.304ZM8.568 9.68L10.992 0.487999H15.792L13.344 8.768L12.456 11.792C12.168 12.72 11.904 13.6 11.664 14.432C11.504 15.04 11.32 15.664 11.112 16.304L10.896 17H10.56L8.568 9.68ZM17.4741 0.487999H22.2741V17H17.4741V0.487999ZM36.7719 4.28C36.2439 4.216 35.3159 4.128 33.9879 4.016C33.2519 3.984 32.6599 3.968 32.2119 3.968C31.6359 3.968 31.0919 3.984 30.5799 4.016V0.295999H31.1799C32.4919 0.295999 33.8519 0.383999 35.2599 0.559999C35.7079 0.623999 36.2119 0.711999 36.7719 0.823999V4.28ZM32.8119 12.128C32.8119 11.792 32.7879 11.552 32.7399 11.408C32.6919 11.248 32.6119 11.144 32.4999 11.096C32.3879 11.032 32.1959 10.984 31.9239 10.952L28.9719 10.592C27.2279 10.4 26.0519 9.832 25.4439 8.888C25.1719 8.488 24.9879 8 24.8919 7.424C24.7959 6.848 24.7479 6.144 24.7479 5.312C24.7479 3.536 25.2039 2.256 26.1159 1.472C26.8519 0.831999 28.0039 0.455999 29.5719 0.344V5.168C29.5719 5.376 29.5799 5.552 29.5959 5.696C29.6119 5.84 29.6439 5.952 29.6919 6.032C29.7399 6.128 29.8199 6.2 29.9319 6.248C30.0439 6.28 30.2119 6.304 30.4359 6.32L33.7479 6.728C34.4359 6.824 34.9959 6.944 35.4279 7.088C35.8599 7.232 36.2279 7.456 36.5319 7.76C37.2519 8.512 37.6119 9.848 37.6119 11.768C37.6119 13.8 37.1639 15.224 36.2679 16.04C35.8679 16.408 35.3799 16.68 34.8039 16.856C34.2439 17.016 33.5799 17.12 32.8119 17.168V12.128ZM31.5399 17.192C29.9399 17.192 28.4519 17.12 27.0759 16.976C26.2599 16.896 25.6439 16.816 25.2279 16.736V13.232C26.1719 13.312 27.2519 13.392 28.4679 13.472C29.2359 13.504 29.7799 13.52 30.0999 13.52C30.9639 13.52 31.5319 13.496 31.8039 13.448V17.192H31.5399ZM38.7473 0.487999H52.2593V4.328H38.7473V0.487999ZM43.0913 5.288H47.8913V17H43.0913V5.288ZM56.7024 0.487999H57.1104L59.0064 7.064L56.2464 17H51.4464L56.7024 0.487999ZM62.1024 14.072H58.0944L59.1024 10.376H61.0224L58.1904 0.487999H62.5824L67.8384 17H62.9424L62.1024 14.072Z" fill="white"/>
</svg>
